<?xml version="1.0" standalone="no"?>
<!DOCTYPE svg PUBLIC "-//W3C//DTD SVG 20010904//EN"
 "http://www.w3.org/TR/2001/REC-SVG-20010904/DTD/svg10.dtd">
<svg version="1.0" xmlns="http://www.w3.org/2000/svg"
 width="42.000000pt" height="42.000000pt" viewBox="0 0 42.000000 42.000000"
 preserveAspectRatio="xMidYMid meet" alt="English">

<g transform="translate(0.000000,42.000000) scale(0.100000,-0.100000)"
fill="#000000" stroke="none">
<path d="M52 403 c-13 -23 -38 -334 -29 -356 3 -9 12 -17 18 -17 8 0 8 4 -1
15 -11 13 -10 14 4 9 9 -3 19 -17 22 -31 4 -16 10 -21 16 -15 6 6 16 8 24 5 8
-3 14 5 16 24 l3 28 65 -6 65 -6 -57 -1 c-31 -1 -60 -7 -63 -12 -4 -6 42 -10
132 -10 79 0 132 4 125 9 -8 4 -13 11 -13 15 1 3 1 11 1 16 0 6 -62 10 -165
10 -91 0 -165 4 -165 8 0 4 73 6 163 4 140 -4 165 -2 176 12 11 13 11 41 0
163 l-14 148 -157 3 c-142 2 -158 1 -166 -15z m148 -52 c0 -6 -14 -11 -32 -13
-46 -4 -49 -28 -4 -28 20 0 36 -4 36 -10 0 -5 -16 -10 -35 -10 -24 0 -35 -5
-35 -15 0 -10 11 -15 35 -15 24 0 35 -5 35 -15 0 -11 -12 -15 -50 -15 -48 0
-50 1 -50 28 0 15 3 44 6 65 6 36 8 37 50 37 24 0 44 -4 44 -9z m70 -29 l25
-37 3 38 c5 56 19 45 25 -20 6 -75 -6 -88 -43 -44 l-28 33 -4 -28 c-5 -47 -23
-33 -26 20 -5 85 9 96 48 38z"/>
</g>
</svg>
